<svg width="20" height="20" viewBox="0 0 20 20" fill="none" xmlns="http://www.w3.org/2000/svg">
<path d="M10.1703 9.83937L8.99529 11.0144C8.34529 11.6644 8.34529 12.7227 8.99529 13.3727C9.64529 14.0227 10.7036 14.0227 11.3536 13.3727L13.2037 11.5227C14.5037 10.2227 14.5037 8.11439 13.2037 6.80605C11.9037 5.50605 9.7953 5.50605 8.48696 6.80605L6.47031 8.82271C5.35365 9.93937 5.35365 11.7477 6.47031 12.8644" stroke="black" stroke-linecap="round" stroke-linejoin="round"/>
<path d="M7.49739 18.3366H12.4974C16.6641 18.3366 18.3307 16.6699 18.3307 12.5033V7.50325C18.3307 3.33659 16.6641 1.66992 12.4974 1.66992H7.49739C3.33073 1.66992 1.66406 3.33659 1.66406 7.50325V12.5033C1.66406 16.6699 3.33073 18.3366 7.49739 18.3366Z" stroke="black" stroke-linecap="round" stroke-linejoin="round"/>
</svg>
