<svg width="20" height="20" viewBox="0 0 20 20" fill="none" xmlns="http://www.w3.org/2000/svg">
<g clip-path="url(#clip0_5498_4899)">
<path d="M18.125 3.125H1.875C1.18464 3.125 0.625 3.68464 0.625 4.375V18.125C0.625 18.8153 1.18464 19.375 1.875 19.375H18.125C18.8153 19.375 19.375 18.8153 19.375 18.125V4.375C19.375 3.68464 18.8153 3.125 18.125 3.125Z" stroke="black" stroke-width="1.5" stroke-linecap="round" stroke-linejoin="round"/>
<path d="M0.625 8.125H19.375" stroke="black" stroke-width="1.5" stroke-linecap="round" stroke-linejoin="round"/>
<path d="M5.625 5V0.625" stroke="black" stroke-width="1.5" stroke-linecap="round" stroke-linejoin="round"/>
<path d="M14.375 5V0.625" stroke="black" stroke-width="1.5" stroke-linecap="round" stroke-linejoin="round"/>
<path d="M4.6875 11.875C4.51491 11.875 4.375 11.7351 4.375 11.5625C4.375 11.3899 4.51491 11.25 4.6875 11.25" stroke="black" stroke-width="1.5"/>
<path d="M4.6875 11.875C4.86009 11.875 5 11.7351 5 11.5625C5 11.3899 4.86009 11.25 4.6875 11.25" stroke="black" stroke-width="1.5"/>
<path d="M4.6875 16.25C4.51491 16.25 4.375 16.1101 4.375 15.9375C4.375 15.7649 4.51491 15.625 4.6875 15.625" stroke="black" stroke-width="1.5"/>
<path d="M4.6875 16.25C4.86009 16.25 5 16.1101 5 15.9375C5 15.7649 4.86009 15.625 4.6875 15.625" stroke="black" stroke-width="1.5"/>
<path d="M10 11.875C9.82742 11.875 9.6875 11.7351 9.6875 11.5625C9.6875 11.3899 9.82742 11.25 10 11.25" stroke="black" stroke-width="1.5"/>
<path d="M10 11.875C10.1726 11.875 10.3125 11.7351 10.3125 11.5625C10.3125 11.3899 10.1726 11.25 10 11.25" stroke="black" stroke-width="1.5"/>
<path d="M10 16.25C9.82742 16.25 9.6875 16.1101 9.6875 15.9375C9.6875 15.7649 9.82742 15.625 10 15.625" stroke="black" stroke-width="1.5"/>
<path d="M10 16.25C10.1726 16.25 10.3125 16.1101 10.3125 15.9375C10.3125 15.7649 10.1726 15.625 10 15.625" stroke="black" stroke-width="1.5"/>
<path d="M15.3125 11.875C15.1399 11.875 15 11.7351 15 11.5625C15 11.3899 15.1399 11.25 15.3125 11.25" stroke="black" stroke-width="1.5"/>
<path d="M15.3125 11.875C15.4851 11.875 15.625 11.7351 15.625 11.5625C15.625 11.3899 15.4851 11.25 15.3125 11.25" stroke="black" stroke-width="1.5"/>
<path d="M15.3125 16.25C15.1399 16.25 15 16.1101 15 15.9375C15 15.7649 15.1399 15.625 15.3125 15.625" stroke="black" stroke-width="1.5"/>
<path d="M15.3125 16.25C15.4851 16.25 15.625 16.1101 15.625 15.9375C15.625 15.7649 15.4851 15.625 15.3125 15.625" stroke="black" stroke-width="1.5"/>
</g>
<defs>
<clipPath id="clip0_5498_4899">
<rect width="20" height="20" fill="white"/>
</clipPath>
</defs>
</svg>
