<svg width="19" height="18" viewBox="0 0 19 18" fill="none" xmlns="http://www.w3.org/2000/svg">
<path d="M18.6341 15.8255L17.4489 5.85233C17.3693 5.17953 16.7967 4.67413 16.1192 4.67882H13.3242C13.3242 1.60787 9.99978 -0.311467 7.34026 1.22401C6.10598 1.93663 5.34563 3.25359 5.34563 4.67882H2.54731C1.86984 4.67413 1.29714 5.17953 1.21755 5.85233L0.0324027 15.8255C-0.0115199 16.202 0.107304 16.5794 0.359025 16.8627C0.612556 17.1473 0.975226 17.3105 1.35635 17.3115H17.3068C17.6903 17.3124 18.0557 17.149 18.3108 16.8627C18.5613 16.5788 18.6789 16.2015 18.6341 15.8255ZM6.67538 8.00322C6.67538 8.51505 6.12132 8.83494 5.67807 8.57903C5.47235 8.46025 5.34563 8.24076 5.34563 8.00322V6.67346C5.34563 6.16164 5.89969 5.84175 6.34295 6.09766C6.54866 6.21643 6.67538 6.43592 6.67538 6.67346V8.00322ZM9.33491 2.01931C10.8037 2.01931 11.9944 3.21001 11.9944 4.67882H6.67538C6.67538 3.21001 7.8661 2.01931 9.33491 2.01931ZM13.3242 8.00322C13.3242 8.51505 12.7701 8.83494 12.3269 8.57903C12.1211 8.46025 11.9944 8.24076 11.9944 8.00322V6.67346C11.9944 6.16164 12.5485 5.84175 12.9917 6.09766C13.1975 6.21643 13.3242 6.43592 13.3242 6.67346V8.00322Z" fill="#36454F"/>
</svg>
