<svg width="14" height="14" viewBox="0 0 14 14" fill="none" xmlns="http://www.w3.org/2000/svg">
<path fill-rule="evenodd" clip-rule="evenodd" d="M10.094 10.094C9.75187 10.4353 9.198 10.4353 8.85588 10.094L6.38138 7.61862C6.21743 7.45446 6.12524 7.23201 6.125 7V3.5C6.125 3.26794 6.21719 3.04538 6.38128 2.88128C6.54538 2.71719 6.76794 2.625 7 2.625C7.23206 2.625 7.45462 2.71719 7.61872 2.88128C7.78281 3.04538 7.875 3.26794 7.875 3.5V6.63775L10.094 8.85588C10.4353 9.198 10.4353 9.75187 10.094 10.094ZM7 0C5.14348 0 3.36301 0.737498 2.05025 2.05025C0.737498 3.36301 0 5.14348 0 7C0 8.85652 0.737498 10.637 2.05025 11.9497C3.36301 13.2625 5.14348 14 7 14C8.85652 14 10.637 13.2625 11.9497 11.9497C13.2625 10.637 14 8.85652 14 7C14 5.14348 13.2625 3.36301 11.9497 2.05025C10.637 0.737498 8.85652 0 7 0" fill="black"/>
</svg>
