<svg width="40" height="40" viewBox="0 0 40 40" fill="none" xmlns="http://www.w3.org/2000/svg">
<path d="M9.23281 18.5303C1.43281 19.0803 1.43281 30.4303 9.23281 30.9803H12.4329" stroke="#292D32" stroke-width="1.5" stroke-miterlimit="10" stroke-linecap="round" stroke-linejoin="round"/>
<path d="M9.31737 18.5328C3.96737 3.64942 26.5339 -2.30057 29.1173 13.3328C36.3339 14.2494 39.2507 23.8661 33.784 28.6494C32.1174 30.1661 29.9673 30.9994 27.7173 30.9828H27.5673" stroke="#292D32" stroke-width="1.5" stroke-miterlimit="10" stroke-linecap="round" stroke-linejoin="round"/>
<path d="M28.3307 27.5521C28.3307 28.7854 28.064 29.9521 27.564 30.9854C27.4307 31.2854 27.2808 31.5688 27.1141 31.8354C25.6808 34.2521 23.0307 35.8854 19.9974 35.8854C16.9641 35.8854 14.314 34.2521 12.8807 31.8354C12.714 31.5688 12.5641 31.2854 12.4308 30.9854C11.9308 29.9521 11.6641 28.7854 11.6641 27.5521C11.6641 22.9521 15.3974 19.2188 19.9974 19.2188C24.5974 19.2188 28.3307 22.9521 28.3307 27.5521Z" stroke="#292D32" stroke-width="1.5" stroke-miterlimit="10" stroke-linecap="round" stroke-linejoin="round"/>
<path d="M20.0026 31.6667V25L18.3359 27.2222" stroke="#292D32" stroke-width="1.5" stroke-linecap="round" stroke-linejoin="round"/>
<path d="M20 25L21.6667 27.2222" stroke="#292D32" stroke-width="1.5" stroke-linecap="round" stroke-linejoin="round"/>
</svg>
