<svg width="20" height="20" viewBox="0 0 20 20" fill="none" xmlns="http://www.w3.org/2000/svg">
<path d="M13.3307 10.7474V14.2474C13.3307 17.1641 12.1641 18.3307 9.2474 18.3307H5.7474C2.83073 18.3307 1.66406 17.1641 1.66406 14.2474V10.7474C1.66406 7.83073 2.83073 6.66406 5.7474 6.66406H9.2474C12.1641 6.66406 13.3307 7.83073 13.3307 10.7474Z" stroke="black" stroke-width="1.5" stroke-linecap="round" stroke-linejoin="round"/>
<path d="M18.3307 5.7474V9.2474C18.3307 12.1641 17.1641 13.3307 14.2474 13.3307H13.3307V10.7474C13.3307 7.83073 12.1641 6.66406 9.2474 6.66406H6.66406V5.7474C6.66406 2.83073 7.83073 1.66406 10.7474 1.66406H14.2474C17.1641 1.66406 18.3307 2.83073 18.3307 5.7474Z" stroke="black" stroke-width="1.5" stroke-linecap="round" stroke-linejoin="round"/>
</svg>
