<svg width="8" height="14" viewBox="0 0 8 14" fill="none" xmlns="http://www.w3.org/2000/svg">
<path d="M3.126 13.393V11.755H4.589V13.393H3.126ZM3.126 2.172V0.527H4.589V2.172H3.126ZM3.931 12.21C3.231 12.21 2.60567 12.084 2.055 11.832C1.50433 11.58 1.05167 11.223 0.697 10.761C0.347 10.2943 0.118333 9.74367 0.011 9.109L1.46 8.878C1.6 9.47533 1.89867 9.95133 2.356 10.306C2.81333 10.656 3.36167 10.831 4.001 10.831C4.63567 10.831 5.15133 10.6793 5.548 10.376C5.94933 10.0727 6.15 9.68533 6.15 9.214C6.15 8.878 6.04733 8.605 5.842 8.395C5.64133 8.185 5.31233 8.00767 4.855 7.863L2.489 7.135C1.089 6.701 0.389 5.861 0.389 4.615C0.389 4.027 0.529 3.516 0.809 3.082C1.09367 2.648 1.49267 2.312 2.006 2.074C2.51933 1.836 3.119 1.717 3.805 1.717C4.463 1.72633 5.04633 1.84767 5.555 2.081C6.06833 2.31433 6.493 2.65033 6.829 3.089C7.16967 3.52767 7.40533 4.055 7.536 4.671L6.045 4.937C5.97967 4.57767 5.842 4.26033 5.632 3.985C5.42667 3.70967 5.16533 3.495 4.848 3.341C4.53533 3.187 4.183 3.10767 3.791 3.103C3.42233 3.09367 3.091 3.152 2.797 3.278C2.50767 3.39933 2.27667 3.572 2.104 3.796C1.936 4.01533 1.852 4.265 1.852 4.545C1.852 4.853 1.971 5.11433 2.209 5.329C2.447 5.54367 2.82267 5.728 3.336 5.882L5.191 6.421C6.04033 6.673 6.654 7.01133 7.032 7.436C7.41 7.86067 7.599 8.42533 7.599 9.13C7.599 9.746 7.445 10.285 7.137 10.747C6.83367 11.2043 6.40667 11.5637 5.856 11.825C5.30533 12.0817 4.66367 12.21 3.931 12.21Z" fill="black"/>
</svg>
