<svg width="81" height="80" viewBox="0 0 81 80" fill="none" xmlns="http://www.w3.org/2000/svg">
<g clip-path="url(#clip0_5317_13393)">
<path d="M60.5 37.5C63.4112 37.4978 66.2829 38.1746 68.8867 39.4765C71.4906 40.7785 73.755 42.6697 75.5 45" stroke="black" stroke-width="2" stroke-linecap="round" stroke-linejoin="round"/>
<path d="M5.5 45C7.24499 42.6697 9.50937 40.7785 12.1133 39.4765C14.7171 38.1746 17.5888 37.4978 20.5 37.5" stroke="black" stroke-width="2" stroke-linecap="round" stroke-linejoin="round"/>
<path d="M40.5 57.5C47.4036 57.5 53 51.9036 53 45C53 38.0964 47.4036 32.5 40.5 32.5C33.5964 32.5 28 38.0964 28 45C28 51.9036 33.5964 57.5 40.5 57.5Z" stroke="black" stroke-width="2" stroke-linecap="round" stroke-linejoin="round"/>
<path d="M23 67.5C24.7947 64.4545 27.353 61.9301 30.4222 60.1763C33.4913 58.4225 36.9651 57.5 40.5 57.5C44.0349 57.5 47.5086 58.4225 50.5778 60.1763C53.647 61.9301 56.2053 64.4545 58 67.5" stroke="black" stroke-width="2" stroke-linecap="round" stroke-linejoin="round"/>
<path d="M50.8125 25C51.28 23.1893 52.246 21.5459 53.6006 20.2566C54.9552 18.9672 56.6442 18.0836 58.4758 17.706C60.3074 17.3284 62.2082 17.4719 63.9623 18.1204C65.7164 18.7688 67.2535 19.8961 68.3991 21.3743C69.5447 22.8525 70.2528 24.6223 70.4431 26.4827C70.6333 28.3431 70.2981 30.2196 69.4754 31.899C68.6527 33.5785 67.3756 34.9936 65.7891 35.9837C64.2025 36.9737 62.3701 37.4991 60.5 37.5" stroke="black" stroke-width="2" stroke-linecap="round" stroke-linejoin="round"/>
<path d="M20.5028 37.5C18.6327 37.4991 16.8003 36.9737 15.2137 35.9837C13.6272 34.9936 12.35 33.5785 11.5274 31.899C10.7047 30.2196 10.3694 28.3431 10.5597 26.4827C10.75 24.6223 11.4581 22.8525 12.6037 21.3743C13.7493 19.8961 15.2864 18.7688 17.0405 18.1204C18.7946 17.4719 20.6954 17.3284 22.527 17.706C24.3586 18.0836 26.0476 18.9672 27.4022 20.2566C28.7568 21.5459 29.7227 23.1893 30.1903 25" stroke="black" stroke-width="2" stroke-linecap="round" stroke-linejoin="round"/>
</g>
<defs>
<clipPath id="clip0_5317_13393">
<rect width="80" height="80" fill="white" transform="translate(0.5)"/>
</clipPath>
</defs>
</svg>
