<svg width="24" height="24" viewBox="0 0 24 24" fill="none" xmlns="http://www.w3.org/2000/svg">
<path opacity="0.4" d="M21.9897 6.01898C22.0097 6.25898 21.9897 6.50897 21.9297 6.75897L18.5597 20.2889C18.3197 21.2989 17.4198 21.999 16.3798 21.999H3.23974C1.72974 21.999 0.659755 20.519 1.09976 19.069L5.30975 5.53894C5.59975 4.59894 6.46976 3.95898 7.44976 3.95898H19.7498C20.7098 3.95898 21.4898 4.52898 21.8198 5.32898C21.9198 5.53898 21.9697 5.77898 21.9897 6.01898Z" fill="black"/>
<path d="M22.9928 19.62C23.0928 20.91 22.0728 22 20.7828 22H16.3828C17.4228 22 18.3228 21.3 18.5628 20.29L21.9328 6.76001C21.9928 6.51001 22.0128 6.26002 21.9928 6.02002L22.0028 6L22.9928 19.62Z" fill="black"/>
<path d="M9.68172 7.1294C9.62172 7.1294 9.56173 7.11938 9.50173 7.10938C9.10173 7.00938 8.85174 6.60941 8.95174 6.19941L9.99172 1.8794C10.0917 1.4794 10.4917 1.23941 10.9017 1.32941C11.3017 1.42941 11.5517 1.82939 11.4517 2.23939L10.4117 6.55939C10.3317 6.89939 10.0217 7.1294 9.68172 7.1294Z" fill="black"/>
<path d="M16.3795 7.1398C16.3295 7.1398 16.2694 7.13978 16.2194 7.11978C15.8194 7.02978 15.5595 6.62977 15.6395 6.22977L16.5794 1.8898C16.6694 1.4798 17.0694 1.22978 17.4694 1.30978C17.8694 1.39978 18.1294 1.7998 18.0494 2.1998L17.1094 6.53977C17.0394 6.89977 16.7295 7.1398 16.3795 7.1398Z" fill="black"/>
<path d="M15.7031 12.75H7.70312C7.29313 12.75 6.95312 12.41 6.95312 12C6.95312 11.59 7.29313 11.25 7.70312 11.25H15.7031C16.1131 11.25 16.4531 11.59 16.4531 12C16.4531 12.41 16.1131 12.75 15.7031 12.75Z" fill="black"/>
<path d="M14.7031 16.75H6.70312C6.29313 16.75 5.95312 16.41 5.95312 16C5.95312 15.59 6.29313 15.25 6.70312 15.25H14.7031C15.1131 15.25 15.4531 15.59 15.4531 16C15.4531 16.41 15.1131 16.75 14.7031 16.75Z" fill="black"/>
</svg>
