<svg width="9" height="12" viewBox="0 0 9 12" fill="none" xmlns="http://www.w3.org/2000/svg">
<path d="M1.408 12V7.888H0.16V6.864H1.408V5.552H0.16V4.528H1.408V0.575999H3.072L4.592 4.528H6.48V0.575999H7.744V4.528H8.992V5.552H7.744V6.864H8.992V7.888H7.744V12H6.064L4.544 7.888H2.656V12H1.408ZM2.656 6.864H4.16L3.68 5.552H2.624L2.656 6.864ZM6.48 9.744H6.544L6.496 7.888H5.824L6.48 9.744ZM2.624 4.528H3.296L2.624 2.544H2.56L2.624 4.528ZM5.44 6.864H6.512L6.48 5.552H4.96L5.44 6.864Z" fill="black"/>
</svg>
