<svg width="277" height="200" viewBox="0 0 277 200" fill="none" xmlns="http://www.w3.org/2000/svg">
<path d="M276.5 100.286C276.5 58.2073 242.388 24.0957 200.31 24.0957H76.6905C34.6116 24.0957 0.5 58.2074 0.5 100.286V123.809C0.5 165.888 34.6116 199.999 76.6905 199.999H200.31C242.388 199.999 276.5 165.888 276.5 123.809V100.286Z" fill="#EEEEEF"/>
<mask id="mask0_5811_6874" style="mask-type:alpha" maskUnits="userSpaceOnUse" x="0" y="0" width="277" height="200">
<rect width="276" height="200" rx="76.1905" transform="matrix(-1 0 0 1 276.5 0)" fill="#E50A3E"/>
</mask>
<g mask="url(#mask0_5811_6874)">
<path d="M194.363 167.899C169.023 108.173 151.329 87.9795 145.65 85.3485C153.287 70.6347 172.445 42.4481 187.98 47.4122C203.516 52.3762 254.039 101.568 277.359 125.543L285.562 236.285L261.339 240.037C249.572 240.877 219.703 227.624 194.363 167.899Z" fill="#B2B2B2"/>
<path d="M160.778 62.4912C169.164 52.4661 179.156 44.593 187.978 47.4122C193.691 49.2377 204.136 57.0446 216.22 67.3791C203.07 97.1373 181.041 107.021 164.943 108.874C161.124 102.689 157.764 97.9131 154.91 94.3185L160.778 62.4912Z" fill="white"/>
<path d="M110.452 89.3778C112.099 90.07 116.563 86.243 118.589 84.243L126.335 80.6542C128.15 83.7633 150.989 95.0883 162.182 100.362C161.412 101.26 164.86 100.07 184.815 88.1207C204.77 76.1715 203.992 62.1255 201.11 56.5962C198.472 54.5915 189.528 46.6946 174.856 31.1435C160.183 15.5925 149.484 11.1943 145.969 10.9391C114.47 10.6562 91.9775 24.9117 91.2565 36.0959C90.6797 45.0432 93.206 52.1498 94.5412 54.5847C94.1608 56.2987 93.519 61.4385 93.9954 68.2866C94.4717 75.1346 99.7541 74.4541 102.336 73.2579C99.9199 74.4423 97.2519 79.1869 99.9831 82.5343C102.168 85.2122 107.215 83.5365 109.465 82.3638C106.195 85.6334 108.394 88.5127 110.452 89.3778Z" fill="#D4D4D4"/>
<path d="M144.839 80.8532C134.587 77.1316 122.831 58.9772 118.234 50.3652L142.765 58.2297L146.631 63.5202C150.659 69.71 165.579 79.7109 172.535 83.9375C167.574 84.4601 155.091 84.5748 144.839 80.8532Z" fill="#999999"/>
<path d="M144.305 37.3715C145.93 34.3881 149.521 27.5872 150.888 24.2511" stroke="#232323" stroke-width="1.99509" stroke-linecap="round"/>
<path d="M130.466 32.2863L136.797 22.726" stroke="#232323" stroke-width="1.99509" stroke-linecap="round"/>
<path d="M110.542 33.2015C108.413 31.3293 109.043 28.4168 109.625 27.1946L119.814 30.0098C122.902 31.3076 128.651 34.9457 126.943 39.1158C124.807 44.3285 113.203 35.5418 110.542 33.2015Z" fill="#EFEFEF"/>
<path opacity="0.5" d="M95.2967 72.3409C97.8847 71.5593 100.576 70.0179 100.921 67.2862C101.476 62.8866 98.1838 56.5075 94.0102 58.6185C93.8139 61.0878 93.7257 64.414 93.9951 68.2863C94.1245 70.1465 94.6085 71.4512 95.2967 72.3409Z" fill="#EFEFEF"/>
<path d="M141.835 59.3081C141.45 65.7453 139.244 79.5318 133.502 83.1801" stroke="#232323" stroke-width="1.99509" stroke-linecap="round" stroke-linejoin="round"/>
<path d="M173.562 84.3689C167.03 81.4613 151.833 72.2563 143.295 58.6965C134.833 56.7701 117.016 51.564 113.442 46.1515C109.868 40.7389 108.792 31.977 108.701 28.2726L110.122 27.1591L166.32 44.909" stroke="#232323" stroke-width="1.99509" stroke-linecap="round" stroke-linejoin="round"/>
<path d="M105.421 30.3626L112.125 92.5971C112.535 96.3989 116.355 98.8405 119.98 97.6169L123.866 96.3051C126.773 95.3236 128.472 92.3038 127.8 89.3118L119.352 51.7008C118.882 49.6067 117.229 48.0393 115.509 46.7581C110.68 43.162 109.47 35.6224 109.52 30.3537C109.532 29.0229 108.353 27.941 107.044 28.1835C106.017 28.3739 105.309 29.3242 105.421 30.3626Z" fill="#232323" stroke="#232323" stroke-width="1.99509" stroke-linecap="round"/>
<path d="M135.464 191.373C122.515 192.653 117.202 184.631 115.511 177.665C114.75 174.531 117.13 171.732 120.297 171.114L141.703 166.935C144.936 166.303 148.223 168.079 148.81 171.32C150.29 179.492 148.809 190.053 135.464 191.373Z" fill="#999999"/>
<path d="M130.966 175.62C95.7918 179.646 82.427 175.173 78.7763 170.134C77.6506 168.581 78.4298 166.568 79.6167 165.057C93.8391 146.944 95.3665 116.996 94.1247 100.925C93.9502 98.6664 94.8089 96.441 96.5293 94.9642L108.208 84.9392C109.26 84.0365 110.562 83.4765 111.939 83.3343L126.023 81.8805C127.209 81.7581 128.406 81.9501 129.493 82.4373L144.204 89.0293C146.388 90.008 147.878 92.0739 148.235 94.4418C152.208 120.75 165.143 139.809 172.735 147.797C173.846 148.966 175.475 149.429 176.894 150.197C179.281 151.488 180.359 154.386 180.619 156.003C181.233 159.403 170.895 171.049 130.966 175.62Z" fill="#999999"/>
<path d="M78.8135 170.182C82.5144 175.201 95.9059 179.633 130.968 175.619C170.897 171.048 181.235 159.403 180.621 156.003C180.361 154.383 179.279 151.476 176.882 150.189C176.465 149.965 176.032 149.768 175.599 149.57C175.115 149.35 174.632 149.13 174.174 148.874C167.978 156.251 144.33 164.757 80.7552 163.547C80.3945 164.047 80.025 164.538 79.6465 165.021C78.4438 166.556 77.6559 168.613 78.8135 170.182Z" fill="#D4D4D4"/>
<path d="M128.383 111.445L114.319 139.932C112.233 144.158 111.308 148.863 111.64 153.564C112.081 159.82 110.295 166.031 106.598 171.097L102.211 177.108L109.349 177.108L112.647 170.124C114.767 165.634 115.582 160.637 114.998 155.706C114.416 150.795 115.221 145.819 117.323 141.343L131.357 111.445L124.814 106.023L128.383 111.445Z" fill="#232323"/>
<path d="M146.454 90.6784C131.433 95.7213 110.007 97.0387 94.9464 96.9773C95.3487 96.2097 95.8919 95.5153 96.5658 94.9369L108.222 84.9314C109.268 84.0337 110.558 83.4779 111.921 83.3372L126.049 81.8789C127.221 81.7579 128.405 81.9482 129.482 82.4312L144.182 89.018C145.059 89.4112 145.826 89.9817 146.454 90.6784Z" fill="#D4D4D4"/>
<path d="M148.94 173.189C150.103 179.038 148.915 190.758 134.863 190.842" stroke="#232323" stroke-width="2.26338" stroke-linecap="round"/>
<path d="M100.452 74.9112C101.78 72.455 107.215 65.8262 110.515 61.5425C113.814 57.2588 121.175 54.3722 124.443 53.4643" stroke="#232323" stroke-width="1.99509" stroke-linecap="round" stroke-linejoin="round"/>
<path d="M108.539 83.4428C113.716 78.8565 124.611 68.8356 126.773 65.4427" stroke="#232323" stroke-width="1.99509" stroke-linecap="round" stroke-linejoin="round"/>
<path opacity="0.4" d="M94.2074 53.9305C95.5253 54.3031 97.1138 54.2982 98.9802 53.7634C100.453 48.598 101.708 38.3878 94.9462 38.8702C93.3881 38.9814 92.142 39.6722 91.2194 40.704C91.5133 46.7954 93.0964 51.5913 94.2074 53.9305Z" fill="#EFEFEF"/>
<path d="M111.632 41.726C100.938 54.6338 95.7802 55.6765 94.5384 54.5843C90.7217 47.6035 87.1107 31.1283 103.2 21.0742C123.312 8.50664 150.125 6.08757 163.676 21.3138C174.517 33.4948 190.64 47.3905 197.346 52.8158" stroke="#232323" stroke-width="1.99509" stroke-linecap="round" stroke-linejoin="round"/>
<path d="M162.183 100.363C169.809 97.4572 187.279 89.0589 196.152 78.7099" stroke="#232323" stroke-width="1.99509" stroke-linecap="round"/>
<path d="M173.344 124.361C189.15 157.644 219.482 225.919 242.485 234.804" stroke="#232323" stroke-width="1.99509" stroke-linecap="round"/>
<path d="M113.481 176.867C120.423 176.769 189.695 170.541 179.897 153.758C178.352 151.113 174.852 149.143 173.295 148.489" stroke="#232323" stroke-width="2.26338" stroke-linecap="round"/>
<path d="M164.754 111.347L173.471 98.3358" stroke="white" stroke-width="2.49084" stroke-linecap="round"/>
<path d="M169.366 117.556L182.092 108.408" stroke="white" stroke-width="2.49084" stroke-linecap="round"/>
<path d="M173.557 124.455L188.989 121.614" stroke="white" stroke-width="2.49084" stroke-linecap="round"/>
<path d="M70.3287 166.254L55.2932 170.174" stroke="white" stroke-width="2.49084" stroke-linecap="round"/>
<path d="M70.9277 158.51L55.4085 156.847" stroke="white" stroke-width="2.49084" stroke-linecap="round"/>
<path d="M72.2891 150.528L58.8591 142.321" stroke="white" stroke-width="2.49084" stroke-linecap="round"/>
</g>
<path fill-rule="evenodd" clip-rule="evenodd" d="M69.9812 130.582C78.3667 125.629 83.7756 117.82 83.7756 109.036C83.7756 94.0646 68.0631 81.9277 48.6808 81.9277C29.2984 81.9277 13.5859 94.0646 13.5859 109.036C13.5859 124.008 29.2984 136.145 48.6808 136.145C51.7742 136.145 54.7742 135.835 57.6317 135.255C64.0611 138.019 71.3185 139.267 77.3667 139.707C78.7619 139.808 79.2687 137.021 78.0582 136.32C75.2899 134.717 72.5495 132.716 69.9812 130.582Z" fill="white"/>
<path d="M59.9857 104.856C62.7254 112.167 63.4526 122.832 54.6358 126.221C47.5145 128.959 41.9438 125.038 39.4065 118.268C38.5974 116.109 38.0791 113.838 37.7913 111.592C36.8677 104.987 36.9414 97.493 44.2565 94.6812C51.8137 91.7763 57.5587 98.3803 59.9857 104.856ZM52.5163 120.862C55.7621 119.614 53.5851 110.404 52.6657 107.951C52.1325 106.528 48.7698 99.6257 46.9289 100.333C46.6383 100.445 45.5258 101.322 45.4056 101.592C44.2418 104.846 45.5331 112.433 46.7466 115.671C47.5189 117.731 49.7066 121.942 52.5163 120.862Z" fill="#232323"/>
<path d="M112.045 171.415L107.213 170.232C107.025 170.512 106.832 170.788 106.632 171.061L102.219 177.108H109.357L112.045 171.415Z" fill="#EEEEEF"/>
</svg>
