<svg width="200" height="200" viewBox="0 0 200 200" fill="none" xmlns="http://www.w3.org/2000/svg">
<path d="M85 72.5H90.5V73H91V74H91.5V74.5H92V75.5H92.5V76H93V76.5H93.5V77H94V77.5H94.5V78H95V78.5H95.5V79H96.5V79.5H97V80H98V80.5H99V81H100.5V81.5H102.5V82H110V81.5H111.5V81H113V80.5H114V80H114.5V79.5H115.5V79H116.5V78.5H117V78H117.5V77.5H118.5V77H119V76.5H119.5V76H120V75.5H120.5V75H121V74.5H122V74H125V74.5H125.5V75H125V75.5H124.5V76H124V76.5H123.5V77H123V78H122.5V79H122V81.5H122.5V82H123V82.5H125.5V82H126.5V81.5H127.5V81H128V80.5H129V80H129.5V79.5H130.5V79H131V78.5H131.5V78H132.5V77.5H133V77H134V76.5H135.5V77H138.5V77.5H141V78H143V78.5H145V79H146V80H145.5V81H145V82.5H144.5V86.5H145V87H145.5V87.5H147.5V87H148.5V86.5H149.5V86H150V85.5H151V85H151.5V84.5H152V83.5H152.5V83H153V82.5H153.5V81.5H155.5V82H157V82.5H158.5V83H159.5V83.5H160.5V84H161.5V84.5H162.5V85H163.5V85.5H164.5V86H165V86.5H166V87H166.5V87.5H167.5V88H168V88.5H169V89H170V89.5H170.5V90H171V90.5H171.5V91H172V91.5H172.5V92H173V92.5H173.5V93H174V93.5H174.5V94H175V94.5H175.5V95.5H176V96H176.5V96.5H177V97.5H177.5V98H178V99H178.5V99.5H179V100.5H179.5V101.5H180V102H180.5V103H181V104H181.5V105H182V106.5H182.5V107.5H183V108.5H183.5V110H184V111.5H184.5V113H185V115H185.5V117H186V119.5H186.5V122.5H187V129H187.5V133.5H187V140H186.5V143H186V146H185.5V148H185V150H184.5V151.5H184V153.5H183.5V154.5H183V156H182.5V157.5H182V158.5H181.5V159.5H181V160.5H180.5V162H180V163H179.5V163.5H179V164.5H178.5V165.5H178V166.5H177.5V167H177V168H176.5V168.5H176V169.5H175.5V170H175V171H174.5V171.5H174V172H173.5V173H173V173.5H172.5V174H172V174.5H171.5V175H171V176H170.5V176.5H170V177H169.5V177.5H169V178H168.5V178.5H168V179H167.5V179.5H167V180H166V180.5H165.5V181H165V181.5H164.5V182H164V182.5H163V183H162.5V183.5H162V184H161V184.5H160.5V185H159.5V185.5H159V186H158V186.5H157V187H156V187.5H155V188H154V188.5H153V189H152V189.5H151V190H149.5V190.5H148V191H146.5V191.5H145V192H143V192.5H140.5V193H138V193.5H134V194H126V194.5H123V194H116V193.5H112.5V193H110V192.5H108V192H106.5V191.5H105V191H103.5V190.5H102.5V190H101.5V189.5H100V189H99V188.5H98V188H97V187.5H96V187H95V186.5H94V186H93.5V185.5H92.5V185H91.5V184.5H91V184H90V183.5H89.5V183H88.5V182.5H88V182H87V181.5H86.5V181H85.5V180.5H85V180H84V179.5H83.5V179H83V178.5H82V178H81.5V177.5H81V177H80.5V176.5H80V176H79V175.5H78.5V175H78V174.5H77.5V174H77V173.5H76.5V173H76V172.5H75.5V172H75V171.5H74.5V171H74V170.5H73.5V170H73V169.5H72.5V169H72V168.5H71.5V168H71V167.5H70.5V167H70V166H69.5V165.5H70V164H70.5V163.5H71V163H71.5V162.5H71V161.5H71.5V162H72V161.5H72.5V161H73V160.5H73.5V160H74V159.5H74.5V159H75V158.5H75.5V158H76V157.5H76.5V157H77V156.5H77.5V156H78V155.5H78.5V155H79V154H79.5V153.5H80V153H80.5V152.5H81V151.5H81.5V151H82V150H82.5V149H83V148H83.5V147H84V146H84.5V145H86.5V145.5H90.5V146H92V147H91.5V148.5H91V149.5H90.5V150.5H90V151.5H89.5V152.5H89V153.5H88.5V154.5H88V155.5H87.5V156.5H87V157H86.5V158H86V158.5H85.5V159.5H85V160.5H84.5V161H84V162H82V161.5H79V162H78V162.5H77.5V163.5H77V165.5H77.5V166.5H78.5V167H79.5V167.5H81.5V168H82V169.5H79V169H78V168.5H77.5V169H77V169.5H76.5V170H77V170.5H78V171H79V171.5H82V171H83V170.5H83.5V170H84V167H83.5V166.5H83V166H82V164.5H83V164H83.5V163.5H84V162.5H84.5V161.5H85V161H85.5V160.5H86V160H86.5V159H87V158.5H87.5V157.5H88V157H88.5V156H89V155.5H89.5V154.5H90V153.5H90.5V153H91V152H91.5V151H92V150H92.5V148.5H93V147H93.5V146.5H96.5V147H100.5V147.5H104V148H108V148.5H111.5V149H115V149.5H118.5V150H121.5V150.5H125V151H128V151.5H131V152H134V152.5H137V153H139.5V153.5H142.5V154H145V154.5H147.5V155H150V155.5H153V156H155.5V156.5H157V156H156V155.5H154.5V155H152.5V154.5H150.5V154H148.5V153.5H146.5V153H144.5V152.5H142.5V152H140V151.5H138V151H135.5V150.5H133V150H130.5V149.5H128V149H125V148.5H122V148H119V147.5H116V147H112.5V146.5H109V146H105.5V145.5H101V145H95.5V144.5H86.5V144H85.5V142.5H86V141.5H86.5V140H87V138H87.5V135.5H88V126H87.5V125H87V124.5H86.5V124H86V123.5H85V123H84V122.5H83V122H81.5V121.5H80V121H78V120.5H75.5V120H73V119.5H70V119H66V118.5H63.5V115H63V114H62.5V113H62V112H61.5V111.5H61V111H60.5V110H60V109.5H59.5V109H59V108.5H58V108H57.5V107.5H57V107H56V106.5H55.5V106H54.5V105.5H53.5V105H52.5V104.5H51V104H49.5V103.5H47.5V103H45V102.5H42V102H34.5V100.5H35V100H35.5V99H36V98.5H36.5V98H37V97.5H37.5V97H38V96.5H38.5V96H39V95.5H39.5V95H40.5V94.5H41V94H41.5V93.5H42V93H42.5V92.5H43.5V92H44V91.5H44.5V91H45.5V90.5H46V90H47V89.5H47.5V89H48.5V88.5H49V88H50V87.5H50.5V87H51.5V86.5H52V86H53V85.5H54V85H55V84.5H55.5V84H56.5V83.5H57.5V83H58.5V82.5H59.5V82H60.5V81.5H61.5V81H62.5V80.5H63.5V80H64.5V79.5H65.5V79H66.5V78.5H68V78H69V77.5H70V77H71.5V76.5H72.5V76H74V75.5H75.5V75H76.5V74.5H78.5V75H79V76H79.5V77H80V78H80.5V78.5H81V79.5H81.5V80H82V81H82.5V81.5H83V82H83.5V82.5H84V83.5H84.5V84H85V84.5H85.5V85H86V85.5H86.5V86H87.5V86.5H88V87H88.5V87.5H89V88H90V88.5H90.5V89H91.5V89.5H92.5V90H93.5V90.5H94.5V91H95.5V91.5H97V92H99V92.5H102.5V93H104.5V92.5H108V92H110V91.5H111.5V91H113V90.5H114V90H115V89.5H116V89H116.5V88.5H115.5V89H114.5V89.5H113V90H111.5V90.5H109.5V91H106.5V91.5H102V91H99V90.5H97V90H96V89.5H94.5V89H93.5V88.5H92.5V88H92V87.5H91V87H90.5V86.5H89.5V86H89V85.5H88.5V85H88V84.5H87.5V84H87V83.5H86.5V83H86V82.5H85.5V82H85V81.5H84.5V81H84V80.5H83.5V80H83V79H82.5V78.5H82V78H81.5V77H81V76.5H80.5V75.5H80V75H79.5V74H80V73.5H82.5V73H85V72.5ZM118 87V87.5H118.5V87H118ZM117.5 87.5V88H118V87.5H117.5ZM116.5 88V88.5H117.5V88H116.5ZM156.5 116V117.5H156V119H155.5V120.5H155V121.5H154.5V123H154V124.5H153.5V125.5H153V126.5H152.5V128H152V129H151.5V130H151V131H150.5V132H150V133H149.5V134H149V135H148.5V136H148V137H147.5V137.5H147V138.5H146.5V139.5H146V140H145.5V141H145V141.5H144.5V142.5H144V143.5H143.5V144H143V144.5H142.5V145.5H142V146H141.5V147H141V147.5H140.5V148H140V149H141V148.5H142V148H142.5V147.5H143V147H143.5V146.5H144V145.5H144.5V145H145V144.5H145.5V144H146V143H146.5V142.5H147V141.5H147.5V141H148V140H148.5V139.5H149V138.5H149.5V137.5H150V136.5H150.5V135.5H151V134.5H151.5V133.5H152V132.5H152.5V131H153V130H153.5V128.5H154V127.5H154.5V126H155V124.5H155.5V122.5H156V120.5H156.5V118.5H157V116H156.5ZM123.5 161.5V171.5H125.5V161.5H123.5ZM86.5 162V162.5H86V164.5H85V166H86V170.5H86.5V171H87V171.5H89.5V171H90V169.5H89V170H88.5V169.5H88V166H89.5V164.5H88V162H86.5ZM91 164.5V171.5H93V167H93.5V166.5H94V166H95.5V164.5H93.5V165.5H93V164.5H91ZM97.5 164.5V165H97V165.5H96.5V166.5H96V169.5H96.5V170.5H97V171H98V171.5H101V171H102V170.5H102.5V170H102V169.5H101.5V169H101V169.5H100.5V170H99V169.5H98V168.5H102.5V166H102V165H101.5V164.5H97.5ZM105 164.5V165H104V165.5H103.5V166H104V166.5H105.5V166H107.5V167H105.5V167.5H104.5V168H104V168.5H103.5V170.5H104V171H104.5V171.5H107V171H107.5V170.5H108V171H109.5V165.5H109V165H108.5V164.5H105ZM111.5 164.5V171H113V167H113.5V166H115.5V171.5H117.5V166.5H118V166H119.5V166.5H120V171.5H122V166H121.5V165H121V164.5H118V165H117.5V165.5H117V165H116.5V164.5H113.5V165H113V164.5H111.5ZM130.5 164.5V171.5H132.5V166.5H133V166H135V171.5H137V165.5H136.5V165H136V164.5H133V165H132.5V164.5H130.5ZM140 164.5V165H139.5V165.5H139V166H138.5V170H139V170.5H139.5V171H140.5V171.5H143V171H144V170.5H144.5V169.5H144V169H143.5V169.5H142.5V170H141V169.5H140.5V168.5H145V166H144.5V165.5H144V165H143.5V164.5H140Z" fill="#C4C4CE"/>
<path d="M74.5 5H85.5V5.5H88.5V6H90.5V6.5H92V7H93.5V7.5H94.5V8H95.5V8.5H96.5V9H97V9.5H98V10H98.5V10.5H99V11H99.5V11.5H100V12H100.5V13H101.5V12.5H103V12H105.5V12.5H107.5V13H108.5V13.5H109.5V14H110V14.5H111V15H111.5V15.5H112V16H112.5V17H113V17.5H113.5V18H114V19H114.5V20H115V21.5H115.5V23H116V25H116.5V30.5H118V31H119V32H119.5V32.5H120V37.5H119.5V38.5H119V39.5H118.5V40H118V41H117.5V41.5H117V42.5H116.5V43H116V44H115.5V44.5H115V45.5H114.5V48H114V50.5H114.5V54H115V56.5H115.5V58.5H116V60.5H116.5V62.5H117V64H117.5V65H118V66.5H118.5V67.5H119V68H119.5V69H120V69.5H120.5V70H121V70.5H121.5V71H122.5V71.5H123.5V72.5H121V72H120V71.5H119.5V71H119V70.5H118.5V69.5H118V69H117.5V68H117V67H116.5V66H116V65H115.5V63.5H115V62.5H114.5V60.5H114V58.5H113.5V56H113V53.5H112.5V45.5H113V44H113.5V43H114V42H114.5V41.5H115V40.5H115.5V40H116V39H116.5V38.5H117V37.5H117.5V36.5H118V33H117.5V32.5H116V33H115V33.5H114.5V34H114V34.5H113V35H112V35.5H108V35H107.5V34.5H106.5V34H106V33.5H105V33H104.5V32.5H104V32H103.5V31.5H103V31H102.5V30.5H102V30H101.5V29H101V28.5H100.5V27.5H100V26.5H99.5V25.5H99V23.5H98.5V22H98V22.5H97V23H96.5V23.5H95.5V24H95V24.5H94V25H93V25.5H92V26H91V26.5H90.5V27H89.5V27.5H88.5V28H87.5V28.5H86V29H85V29.5H84V30H82.5V30.5H81.5V31H80V31.5H78.5V32H76.5V32.5H74.5V33H67.5V32.5H65.5V32H64.5V31.5H63.5V31H62.5V30.5H61.5V30H61V29.5H60.5V29H60V28.5H59.5V28H59V27.5H58.5V27H58V26H57.5V25H57V24H56.5V22.5H56V17.5H56.5V16H57V15H57.5V14H58V13.5H58.5V12.5H59V12H59.5V11.5H60V11H60.5V10.5H61.5V10H62V9.5H62.5V9H63.5V8.5H64.5V8H65.5V7.5H66.5V7H68V6.5H69.5V6H71.5V5.5H74.5V5Z" fill="#0F1419"/>
<path d="M58.5 121H63V121.5H68.5V122H71.5V122.5H74V123H76.5V123.5H79V124H81.5V124.5H83.5V125H85V125.5H85.5V126H86V128.5H85.5V131.5H85V134H84.5V136.5H84V138.5H83.5V140H83V141.5H82.5V143H82V144H81.5V145H80.5V142H81V140H81.5V137.5H82V135.5H82.5V133H83V131H83.5V129H84V128H83.5V128.5H83V129H82.5V129.5H82V130H81.5V130.5H80.5V131H80V131.5H79.5V132H79V132.5H78V133H77.5V133.5H76.5V134H76V134.5H75V135H74V135.5H73V136H72V136.5H71V137H70V137.5H69V138H68V138.5H67V139H65.5V139.5H64V140H62.5V140.5H60.5V141H58V141.5H57.5V143.5H57V145.5H56.5V147H56V148.5H55.5V149.5H55V150.5H54.5V151H54V148.5H54.5V146.5H55V144H55.5V142H56V141.5H48.5V141H44.5V140.5H41.5V140H39.5V139.5H37.5V139H36V138.5H34.5V138H33V137.5H32V137H30.5V136.5H29.5V136H28.5V135.5H27.5V135H26.5V134.5H25.5V134H24.5V133.5H23.5V133H22V134H21.5V136H21V137.5H20.5V138.5H20V140H19.5V141H19V142.5H18.5V143.5H18V144.5H17.5V146H17V147.5H16.5V148.5H16V149.5H15.5V150.5H15V151.5H14.5V152.5H15V153H15.5V153.5H16.5V154H17V154.5H17.5V155H18V155.5H19V156H19.5V156.5H20.5V157H21.5V157.5H22.5V158H24V158.5H25.5V159H27V159.5H28.5V160H30V160.5H31.5V161H33.5V161.5H35.5V162H37.5V162.5H39.5V163.5H34.5V163H32V162.5H29.5V162H28V161.5H26V161H24.5V160.5H23V160H21.5V159.5H20.5V159H19.5V158.5H18.5V158H18V157.5H17V157H16.5V156.5H16V156H15.5V155.5H15V155H14V154.5H13.5V154H13V153H12.5V150.5H13V149.5H13.5V148H14V146.5H14.5V145.5H15V144H15.5V143H16V141.5H16.5V140.5H17V139.5H17.5V138H18V137H18.5V136H19V134.5H19.5V133.5H20V132H20.5V131.5H23.5V132H24.5V132.5H26V133H27V133.5H28.5V134H29.5V134.5H31V135H32V135.5H33.5V136H34.5V136.5H36V137H37.5V137.5H39.5V138H41.5V138.5H44V139H47.5V139.5H55.5V139H59.5V138.5H61.5V138H63.5V137.5H65V137H66V136.5H67.5V136H68.5V135.5H69.5V135H70.5V134.5H71.5V134H72.5V133.5H73.5V133H74.5V132.5H75V132H76V131.5H77V131H77.5V130.5H78.5V129.5H79.5V129H80V128.5H81V128H81.5V127.5H82.5V127H83V126.5H82V126H79V125.5H76.5V125H74V124.5H71V124H68V123.5H65V123H62V122.5H58.5V122H58V121.5H58.5V121Z" fill="#1A1A1B"/>
<path d="M58 129H75V129.5H78V130H78.5V130.5H77.5V131H77V131.5H76V132H75V132.5H74.5V133H73.5V133.5H72.5V134H71.5V134.5H70.5V135H69.5V135.5H68.5V136H67.5V136.5H66V137H65V137.5H63.5V138H61.5V138.5H59.5V139H55.5V139.5H47.5V139H44V138.5H41.5V138H39.5V137.5H37.5V137H36V136.5H34.5V136H33.5V135.5H32V135H32.5V134.5H33.5V134H34.5V133.5H36V133H37.5V132.5H39.5V132H41.5V131.5H44V131H46.5V130.5H49.5V130H53V129.5H58V129Z" fill="#C4C4CE"/>
<path d="M72.5 35H73.5V35.5H74V37.5H74.5V39.5H75V41.5H75.5V43H76V45H76.5V46.5H77V48H77.5V49.5H78V51H78.5V52H79V53H79.5V54.5H80V55.5H80.5V57.5H82V57H84V56.5H86V56H87.5V55.5H88.5V55H90V54.5H91V54H92V53.5H92.5V53H93.5V52.5H94.5V52H95V51.5H96V51H96.5V50.5H97.5V50H98V49.5H98.5V49H99V48.5H99.5V48H100.5V47.5H101V47H101.5V46.5H102V46H102.5V45.5H103V45H103.5V44.5H104V44H104.5V43.5H105V43H105.5V42.5H106V42H106.5V41.5H107V41H107.5V44H107V46H106.5V48H106V49.5H105.5V51H105V52H104.5V53H104V53.5H103.5V54H103V54.5H102.5V55H102V55.5H101V56H100V56.5H94V57H93.5V58H93V59H92.5V59.5H92V60H91.5V60.5H91V61H90V61.5H89V62H83.5V61.5H82V61H80.5V60.5H79.5V60H78.5V59.5H78V59H77.5V58.5H77V58H79V57.5H80V57H79.5V56H79V55.5H78.5V54.5H78V53.5H77.5V52.5H77V51H76.5V50H76V49H75.5V47.5H75V46H74.5V44.5H74V43H73.5V41H73V38H72.5V35Z" fill="#0F1419"/>
<path d="M146.5 39H147.5V39.5H148V41H147.5V43.5H148V46.5H148.5V48H149V49.5H149.5V50.5H150V51.5H150.5V52.5H151V53.5H151.5V54.5H152V55H152.5V56H153V56.5H153.5V57.5H154V58H154.5V59H155V59.5H155.5V60H156V60.5H156.5V61H157V62H157.5V62.5H158V63H158.5V63.5H159V64H159.5V64.5H160V65H160.5V65.5H161V66H161.5V66.5H162V67H162.5V67.5H163V68H163.5V68.5H164V69H164.5V69.5H165V70.5H165.5V71H166V71.5H166.5V72.5H167V73.5H167.5V74.5H168V75.5H168.5V76.5H169V77.5H169.5V79H170V81H170.5V83.5H171V87H170V86.5H169.5V85H169V83.5H168.5V82.5H168V81H167.5V79.5H167V78.5H166.5V77.5H166V76H165.5V75H165V74.5H164.5V73.5H164V72.5H163.5V72H163V71.5H162.5V70.5H162V70H161.5V69.5H161V69H160.5V68.5H160V68H159.5V67H159V66.5H158.5V66H158V65.5H157.5V65H157V64.5H156.5V64H156V63.5H155.5V62.5H155V62H154.5V61.5H154V61H153.5V60.5H153V59.5H152.5V59H152V58.5H151.5V57.5H151V57H150.5V56H150V55H149.5V54.5H149V53.5H148.5V52H148V51H147.5V49.5H147V48H146.5V45H146V42H145.5V42.5H145V43H144.5V43.5H144V44H143.5V44.5H143V45H142.5V45.5H142V46H141.5V46.5H141V47H140.5V47.5H134V48H132V48.5H131V49H129.5V49.5H128.5V48.5H129V48H129.5V47.5H130.5V47H131.5V46.5H133V46H139.5V45.5H140V45H140.5V44.5H141V43.5H141.5V43H142V42.5H142.5V42H143V41.5H143.5V41H144V40.5H145V40H145.5V39.5H146.5V39Z" fill="#0F1419"/>
<path d="M179.5 38H181.5V39H180.5V39.5H179.5V40H178.5V40.5H178V41H177V41.5H176V42H175.5V42.5H175V43H174.5V43.5H174V44H173.5V44.5H173V45H172.5V45.5H172V46H171.5V47H171V48H170.5V49.5H170V52.5H169.5V54H170V57H170.5V58.5H171V60H171.5V61H172V62H172.5V63H173V64H173.5V64.5H174V65.5H174.5V66.5H175V67H175.5V68H176V69H176.5V69.5H177V70.5H177.5V71H178V72H178.5V73H179V74H179.5V75H180V76H180.5V77H181V78H181.5V79.5H182V81.5H182.5V90H182V92H181.5V93H181V94H180.5V95H180V95.5H179.5V96H179V96.5H178V97H177.5V95.5H178V94.5H178.5V94H179V93H179.5V91.5H180V90H180.5V83H180V80.5H179.5V79.5H179V78H178.5V77H178V76H177.5V75H177V74H176.5V73H176V72.5H175.5V71.5H175V70.5H174.5V70H174V69H173.5V68.5H173V67.5H172.5V66.5H172V66H171.5V65H171V64H170.5V63H170V62H169.5V61H169V60H168.5V58H168V56H167.5V50.5H168V48.5H168.5V47H169V46H169.5V45H170V44.5H170.5V43.5H171V43H171.5V42.5H172V42H173V41.5H173.5V41H174V40.5H175V40H176V39.5H177V39H178V38.5H179.5V38Z" fill="#0F1419"/>
<path d="M70.5 141H72V141.5H72.5V142H73V142.5H73.5V143H74V144H74.5V145H75V146H75.5V148.5H76V151H75.5V153H75V154.5H74.5V155.5H74V156.5H73.5V157H73V157.5H72.5V158H72V158.5H71.5V159H71V159.5H70.5V160H70V160.5H70.5V161H71V162.5H71.5V163H71V163.5H70.5V164H70V162.5H69.5V162H69V161.5H67.5V162H66.5V162.5H65.5V163H64V163.5H62.5V164H62V166H60V164.5H58.5V165H57.5V167.5H58V168.5H57.5V168H57V165H55.5V165.5H51.5V165H48V164.5H46V164H44.5V163.5H43V163H42V162.5H41V162H40V160.5H41.5V161H43V161.5H44.5V162H46V162.5H48V163H51.5V163.5H53.5V163H56.5V162H57V163H58V162.5H58.5V162H59V162.5H59.5V162H61.5V161.5H63V161H64V160.5H65.5V160H65V159.5H67.5V159H67V158.5H68.5V158H69.5V157.5H70V157H70.5V156.5H71V155.5H71.5V155H72V154.5H72.5V153.5H73V152H73.5V147H73V145.5H72.5V144.5H72V143.5H71.5V142.5H71V142H70.5V141Z" fill="#0F1419"/>
<path d="M35.5 106H42.5V107H42V107.5H39V108H36V108.5H34.5V109H33V109.5H31.5V110H30.5V110.5H30V111H29V111.5H28.5V112H27.5V112.5H27V113H26.5V113.5H26V114H25.5V115H25V115.5H24.5V116.5H24V117.5H23.5V120H23V123.5H23.5V126H24V127.5H24.5V128.5H25V129H25.5V129.5H26V130.5H25V130H24.5V129.5H23.5V128.5H23V128H22.5V126.5H22V125.5H21.5V123.5H21V118.5H21.5V116.5H22V115H22.5V114.5H23V113.5H23.5V113H24V112H24.5V111.5H25V111H25.5V110.5H26V110H27V109.5H27.5V109H28.5V108.5H29.5V108H30.5V107.5H31.5V107H33V106.5H35.5V106Z" fill="#0F1419"/>
<path d="M97 63.5H101V64H101.5V65H102V66H102.5V68H103V70H103.5V71H103V71.5H102.5V72H101.5V72.5H98V72H97V71.5H96.5V71H96V70.5H95.5V70H95V69.5H94V69H94.5V68H94V65.5H94.5V65H95V64.5H95.5V64H97V63.5Z" fill="#0F1419"/>
<path d="M124 57.5H125V61.5H125.5V64.5H126V66H126.5V67.5H127V68.5H127.5V69H128V70H128.5V70.5H129V71H130V71.5H130.5V72H131.5V72.5H133V73H136.5V72.5H138V72H139.5V71.5H140V71H140.5V70.5H141.5V70H142V69H142.5V68.5H143V68H143.5V67H144V66H144.5V65H145V64H145.5V62.5H146V61H147V63H146.5V65H146V66H145.5V67.5H145V68.5H144.5V69H144V70H143.5V70.5H143V71H142.5V71.5H142V72H141.5V72.5H141V73H140V73.5H139V74H138V74.5H131.5V74H130.5V73.5H129.5V73H128.5V72.5H128V72H127.5V71.5H127V71H126.5V70H126V69.5H125.5V68.5H125V67H124.5V65.5H124V62.5H123.5V59H124V57.5Z" fill="#0F1419"/>
<path d="M49.5 108H51V108.5H52.5V109H53.5V109.5H54V110H54.5V110.5H55V111H55.5V111.5H56V112H56.5V113H57V114H57.5V121.5H57V123H56.5V124.5H56V125.5H55.5V126H55V126.5H54V125.5H54.5V123H55V115.5H54.5V114H54V113.5H53.5V112.5H53V112H52.5V111.5H51.5V111H51V110.5H50V110H49.5V109.5H49V108.5H49.5V108Z" fill="#0F1419"/>
<path d="M135 18.5H137.5V19H139V19.5H139.5V20H140V20.5H140.5V21.5H141V22.5H141.5V25H141V26.5H140.5V27H140V28H139.5V28.5H139V29.5H138.5V30H138V31H137.5V31.5H137V34H136V33.5H135.5V30.5H136V29.5H136.5V28.5H137V28H137.5V27H138V26.5H138.5V25.5H139V24H139.5V23.5H139V22H138.5V21.5H138V21H136.5V20.5H135.5V21H133.5V21.5H132.5V22H131V20.5H131.5V20H132V19.5H133.5V19H135V18.5Z" fill="#C4C4CE"/>
<path d="M41 150.5H43.5V151H45V151.5H46.5V152H48V152.5H49V153H50.5V153.5H53V154H60.5V154.5H61V155.5H60.5V156H58V156.5H56.5V156H52V155.5H49.5V155H48V154.5H46V154H45V153.5H43.5V153H42.5V152.5H41.5V152H41V151.5H40.5V151H41V150.5Z" fill="#0F1419"/>
<path d="M51 52H54V52.5H55V53H56V53.5H56.5V54H57V55H57.5V56H58V60.5H57.5V62H57V63H56.5V64H56V64.5H55.5V65.5H55V66H54.5V66.5H53.5V64.5H54V63.5H54.5V62H55V61H55.5V59H56V57H55.5V56H55V55H54V54.5H53V54H51V54.5H49V53H49.5V52.5H51V52Z" fill="#0F1419"/>
<path d="M40 157H41.5V157.5H43.5V158H45V158.5H47V159H50V159.5H56V159H58.5V159.5H59.5V160H59V160.5H58.5V161H58V161.5H57.5V161H56.5V161.5H50V161H47V160.5H45V160H43.5V159.5H42.5V159H41.5V158.5H41V158H40V157Z" fill="#0F1419"/>
<path d="M36 112H36.5V112.5H37V113.5H36.5V114.5H36V115.5H35.5V117.5H35V120.5H35.5V122H36V123H36.5V124H37V124.5H37.5V125H38V125.5H38.5V126H39V126.5H39.5V127.5H38V127H37V126.5H36.5V126H36V125.5H35.5V125H35V124.5H34.5V123.5H34V122.5H33.5V121.5H33V116.5H33.5V115H34V114H34.5V113.5H35V112.5H36V112Z" fill="#0F1419"/>
<path d="M29.5 112.5H31V113.5H30.5V114.5H30V115H29.5V116H29V117.5H28.5V121.5H29V123H29.5V124.5H30V125.5H30.5V126.5H31V127H31.5V128H32V128.5H32.5V129.5H31.5V129H31V128.5H30.5V128H30V127.5H29.5V127H29V126H28.5V125.5H28V124.5H27.5V123H27V121H26.5V117.5H27V115.5H27.5V115H28V114H28.5V113.5H29V113H29.5V112.5Z" fill="#0F1419"/>
<path d="M146.5 78H147.5V80H147V81H146.5V82.5H146V84H145.5V85.5H146V86H147V85.5H148V85H149V84.5H149.5V84H150V83.5H150.5V83H151V82.5H151.5V82H152V81H152.5V80.5H153V80H153.5V79.5H154V79H154.5V80.5H154V81.5H153.5V82.5H153V83H152.5V83.5H152V84.5H151.5V85H151V85.5H150V86H149.5V86.5H148.5V87H147.5V87.5H145.5V87H145V86.5H144.5V82.5H145V81H145.5V80H146V78.5H146.5V78Z" fill="#1A1E21"/>
<path d="M39 112H40V117H40.5V118.5H41V119.5H41.5V120.5H42V121H42.5V122H43V122.5H43.5V123.5H44V124H44.5V124.5H45V125H43.5V124.5H43V124H42V123.5H41.5V123H41V122.5H40.5V121.5H40V121H39.5V120H39V119H38.5V117.5H38V113.5H38.5V112.5H39V112Z" fill="#0F1419"/>
<path d="M127.5 40H128.5V41H128V42H127.5V43H127V44H126.5V45.5H126V46.5H125.5V48H125V50H124.5V55H123.5V54H123V48H123.5V46.5H124V45H124.5V44H125V43H125.5V42.5H126V41.5H126.5V41H127V40.5H127.5V40Z" fill="#0F1419"/>
<path d="M125.5 74.5H126.5V75.5H126V76.5H125.5V77H125V78H124.5V79H124V81H125V80.5H126.5V80H127.5V79.5H128V79H129V78.5H131V79H130.5V79.5H129.5V80H129V80.5H128V81H127.5V81.5H126.5V82H125.5V82.5H123V82H122.5V81.5H122V79H122.5V78H123V77H123.5V76.5H124V76H124.5V75.5H125V75H125.5V74.5Z" fill="#1B1F23"/>
<path d="M42 69H46.5V69.5H47V70H47.5V70.5H48V74H47.5V74.5H47V75H46.5V76H46V76.5H45.5V77.5H45V79H44.5V78.5H44V76H44.5V75H45V74H45.5V73.5H46V72.5H46.5V71H45.5V70.5H42.5V71H41V70H41.5V69.5H42V69Z" fill="#0F1419"/>
<path d="M91 27.5H95V28H96V28.5H96.5V29H97.5V30H98V30.5H98.5V32H97.5V31.5H96.5V31H95.5V30.5H94.5V30H93V29.5H91V29H90.5V28H91V27.5Z" fill="#0F1419"/>
<path d="M84 63.5H85V64H85.5V64.5H86.5V65H87V65.5H87.5V66H88V66.5H89V67H89.5V67.5H90.5V68H92V68.5H93.5V69H94V69.5H90V69H88.5V68.5H88V68H87V67.5H86.5V67H86V66.5H85.5V66H85V65.5H84.5V64.5H84V63.5Z" fill="#0F1419"/>
<path d="M109.5 60H110V62H109.5V63H109V64H108.5V65H108V65.5H107.5V66H107V66.5H106.5V67H106V67.5H105.5V68H103V67H103.5V66.5H104.5V66H105V65.5H105.5V65H106V64.5H106.5V64H107V63.5H107.5V62.5H108V62H108.5V61H109V60.5H109.5V60Z" fill="#0F1419"/>
<path d="M88 47H89V51.5H89.5V52H92V53H91V53.5H88V53H87.5V47.5H88V47Z" fill="#0F1419"/>
<path d="M80.5 34H82V35H82.5V35.5H82V36.5H81.5V37H81V37.5H80.5V38H80V38.5H79V39H77.5V39.5H77V39H76.5V38.5H77V38H77.5V37.5H78V37H78.5V36.5H79V36H79.5V35.5H80V34.5H80.5V34Z" fill="#0F1419"/>
<path d="M47.5 121H52V121.5H52.5V122.5H44.5V122H45V121.5H47.5V121Z" fill="#0F1419"/>
<path d="M95.5 40H97.5V40.5H98V41H98.5V43H98V43.5H96V43H95.5V42H95V40.5H95.5V40Z" fill="#0F1419"/>
<path d="M80.5 45H81.5V45.5H82V46H82.5V46.5H83V48.5H82.5V49H80.5V48.5H80V45.5H80.5V45Z" fill="#0F1419"/>
<path d="M137.5 53H140V53.5H141V54H141.5V55H142V56H140.5V55.5H139.5V55H138.5V54.5H137.5V53Z" fill="#0F1419"/>
<path d="M128.5 53.5H130.5V55H129.5V55.5H128.5V56H128V56.5H127V57H126V56H126.5V55H127V54.5H127.5V54H128.5V53.5Z" fill="#0F1419"/>
<path d="M139 60.5H140.5V61H141V64H139V63.5H138.5V61H139V60.5Z" fill="#0F1419"/>
<path d="M128 62H129.5V63H130V65H129.5V65.5H128.5V65H128V64.5H127.5V62.5H128V62Z" fill="#0F1419"/>
<path d="M55.5 70.5H57V71H57.5V73H55.5V70.5Z" fill="black"/>
<path d="M136.5 35.5H138.5V37.5H136.5V35.5Z" fill="#C4C4CE"/>
<path d="M44.5 80H46V80.5H46.5V81.5H46V82H44.5V80Z" fill="#0F1419"/>
<rect x="76.5" y="159.5" width="75" height="14" fill="#C4C4CE"/>
</svg>
