<svg width="22" height="22" viewBox="0 0 22 22" fill="none" xmlns="http://www.w3.org/2000/svg">
<path d="M19.6013 5.2654H3.21565C2.58497 5.2654 2.19079 4.58267 2.50614 4.03648C2.6525 3.78299 2.92294 3.62682 3.21565 3.62684H17.1434C17.7741 3.62682 18.1683 2.94406 17.8529 2.39789C17.7066 2.14442 17.4361 1.98828 17.1434 1.98828H3.21565C1.85818 1.98822 0.757812 3.08865 0.757812 4.44612V17.5546C0.757812 18.912 1.85822 20.0124 3.21565 20.0124H19.6013C20.5062 20.0124 21.2398 19.2788 21.2398 18.3739V6.90396C21.2398 5.99904 20.5062 5.26544 19.6013 5.2654ZM15.9145 13.4582C14.9685 13.4582 14.3772 12.4342 14.8502 11.6149C15.3232 10.7956 16.5057 10.7955 16.9787 11.6148C17.0866 11.8016 17.1434 12.0135 17.1434 12.2293C17.1434 12.908 16.5932 13.4582 15.9145 13.4582Z" fill="black"/>
</svg>
