<svg width="24" height="26" viewBox="0 0 24 26" fill="none" xmlns="http://www.w3.org/2000/svg">
<path d="M12.0225 4.91016C8.71253 4.91016 6.02253 7.60016 6.02253 10.9102V13.8002C6.02253 14.4102 5.76253 15.3402 5.45253 15.8602L4.30253 17.7702C3.59253 18.9502 4.08253 20.2602 5.38253 20.7002C9.69253 22.1402 14.3425 22.1402 18.6525 20.7002C19.8625 20.3002 20.3925 18.8702 19.7325 17.7702L18.5825 15.8602C18.2825 15.3402 18.0225 14.4102 18.0225 13.8002V10.9102C18.0225 7.61016 15.3225 4.91016 12.0225 4.91016Z" stroke="#292D32" stroke-width="1.5" stroke-miterlimit="10" stroke-linecap="round"/>
<path d="M13.8719 5.20043C13.5619 5.11043 13.2419 5.04043 12.9119 5.00043C11.9519 4.88043 11.0319 4.95043 10.1719 5.20043C10.4619 4.46043 11.1819 3.94043 12.0219 3.94043C12.8619 3.94043 13.5819 4.46043 13.8719 5.20043Z" stroke="#292D32" stroke-width="1.5" stroke-miterlimit="10" stroke-linecap="round" stroke-linejoin="round"/>
<path d="M15.0234 21.0596C15.0234 22.7096 13.6734 24.0596 12.0234 24.0596C11.2034 24.0596 10.4434 23.7196 9.90344 23.1796C9.36344 22.6396 9.02344 21.8796 9.02344 21.0596" stroke="#292D32" stroke-width="1.5" stroke-miterlimit="10"/>
<circle cx="15" cy="5" r="4.5" fill="black" stroke="white"/>
</svg>
