<svg width="24" height="24" viewBox="0 0 24 24" fill="none" xmlns="http://www.w3.org/2000/svg">
<path d="M2.35938 4.46973C2.76716 5.56252 3.54233 6.38965 4.33365 6.97528" stroke="white" stroke-width="1.5" stroke-linecap="round" stroke-linejoin="round"/>
<path d="M17.7171 4.22869L17.3794 6.25531C18.6187 7.35747 19.5029 8.78837 19.8612 10.3929H20.4397C21.3274 10.3929 22.0469 11.1124 22.0469 12V15.8282C22.0469 16.4369 21.7029 16.9934 21.1584 17.2656L18.6229 18.5335C18.9144 20.0166 17.9773 21.4736 16.4935 21.815C15.0247 22.153 13.5599 21.2735 13.156 19.838C12.5264 19.9674 11.8713 20.0357 11.1987 20.0357C10.2636 20.0357 9.3625 19.9038 8.51661 19.6592L8.50612 19.7048C8.15782 21.2186 6.64834 22.1632 5.13459 21.815C3.62084 21.4667 2.67605 19.9573 3.02435 18.4435L3.44477 16.6162C3.48462 16.4431 3.53964 16.2774 3.60814 16.1202C2.81514 14.9154 2.35938 13.5061 2.35938 12C2.35938 7.56203 6.31685 3.96431 11.1987 3.96431C11.7524 3.96431 12.2942 4.0106 12.8197 4.09915C13.6914 2.95882 14.9839 2.56137 16.1348 2.42491C17.121 2.30799 17.8804 3.24907 17.7171 4.22869Z" stroke="white" stroke-width="1.5" stroke-linecap="round" stroke-linejoin="round"/>
<path d="M10.9643 7.43652H8.52344" stroke="white" stroke-width="1.5" stroke-linecap="round" stroke-linejoin="round"/>
<path d="M16.4219 10.4775V11.9994" stroke="white" stroke-width="1.5" stroke-linecap="round" stroke-linejoin="round"/>
</svg>
