<svg width="24" height="24" viewBox="0 0 24 24" fill="none" xmlns="http://www.w3.org/2000/svg">
<path d="M20.5648 11.4489C20.4877 10.8007 20.3837 10.2504 20.2737 9.66952C20.2681 9.6397 20.2625 9.60979 20.2569 9.5798C19.9605 8.01051 18.6145 6.74951 16.9249 6.5105C16.9047 6.50764 16.8844 6.50478 16.8644 6.50192C16.8533 6.42784 16.843 6.35422 16.8335 6.28097C18.5825 5.49189 18.1293 3.04434 16.4254 2.68981C15.0286 2.39917 11.7881 2.28809 9.85088 2.28809C8.01293 2.28809 6.78337 2.54495 5.46929 2.81947C5.39829 2.8343 5.32704 2.84919 5.25543 2.8641C3.84865 3.15679 2.72799 4.701 2.48123 6.62273C2.4765 6.65946 2.47179 6.69609 2.4671 6.73261C2.28234 8.16999 2.11719 9.45474 2.11719 11.8838C2.11719 12.2942 2.1219 12.6719 2.13063 13.0232C2.12188 13.2879 2.11719 13.5709 2.11719 13.876C2.11719 15.8596 2.31554 16.9087 2.53745 18.0824C2.54309 18.1123 2.54874 18.1422 2.55442 18.1722C2.85077 19.7414 4.19674 21.0024 5.88633 21.2416C5.97236 21.2536 6.05794 21.2658 6.14325 21.2779C7.72148 21.5021 9.19822 21.7118 11.4056 21.7118C13.6131 21.7118 15.0898 21.5021 16.6681 21.2779C16.7534 21.2658 16.839 21.2536 16.9249 21.2416C18.6145 21.0024 19.9605 19.7414 20.2569 18.1722C20.2625 18.1422 20.2681 18.1123 20.2737 18.0824C20.3798 17.5213 20.4806 16.9887 20.5568 16.3689" stroke="black" stroke-width="1.5" stroke-linecap="round" stroke-linejoin="round"/>
<path d="M7.80469 6.48585C8.90748 6.40313 10.7272 6.20508 12.6207 6.20508C14.5809 6.20508 15.5085 6.30504 16.7946 6.48585" stroke="black" stroke-width="1.5" stroke-linecap="round" stroke-linejoin="round"/>
<path d="M20.587 16.3713H18.0703C16.7112 16.3713 15.6094 15.2694 15.6094 13.9102C15.6094 12.5511 16.7112 11.4492 18.0703 11.4492H20.587C21.4746 11.4492 22.1941 12.1688 22.1941 13.0564V14.7641C22.1941 15.6517 21.4746 16.3713 20.587 16.3713Z" stroke="black" stroke-width="1.5" stroke-linecap="round" stroke-linejoin="round"/>
</svg>
