<svg xmlns="http://www.w3.org/2000/svg" xmlns:xlink="http://www.w3.org/1999/xlink" viewBox="0 0 800 800" width="800" height="800" preserveAspectRatio="xMidYMid meet" style="width: 100%; height: 100%; transform: translate3d(0px, 0px, 0px); content-visibility: visible;"><defs><clipPath id="__lottie_element_2721"><rect width="800" height="800" x="0" y="0"></rect></clipPath></defs><g clip-path="url(#__lottie_element_2721)"><g transform="matrix(2.65516996383667,0,0,2.65516996383667,261.46484375,151.4993438720703)" opacity="1" style="display: block;"><g opacity="1" transform="matrix(1,0,0,1,69.08300018310547,72.0479965209961)"><path fill="rgb(102,219,106)" fill-opacity="1" d=" M-67.4749984741211,21.79599952697754 C-67.4749984741211,21.79599952697754 11.142000198364258,-70.0260009765625 11.142000198364258,-70.0260009765625 C12.50100040435791,-71.61199951171875 14.88599967956543,-71.7969970703125 16.472000122070312,-70.43900299072266 C16.472000122070312,-70.43900299072266 67.06199645996094,-27.124000549316406 67.06199645996094,-27.124000549316406 C68.64800262451172,-25.767000198364258 68.83300018310547,-23.3799991607666 67.4749984741211,-21.79400062561035 C67.4749984741211,-21.79400062561035 -11.142000198364258,70.0270004272461 -11.142000198364258,70.0270004272461 C-12.5,71.61299896240234 -14.88599967956543,71.7979965209961 -16.472000122070312,70.44100189208984 C-16.472000122070312,70.44100189208984 -67.06199645996094,27.125 -67.06199645996094,27.125 C-68.64800262451172,25.76799964904785 -68.83300018310547,23.381000518798828 -67.4749984741211,21.79599952697754z"></path></g><g opacity="1" transform="matrix(1,0,0,1,57.60599899291992,62.21699905395508)"><path fill="rgb(60,72,83)" fill-opacity="1" d=" M-48.444000244140625,43.064998626708984 C-48.444000244140625,43.064998626708984 35.090999603271484,-54.499000549316406 35.090999603271484,-54.499000549316406 C35.090999603271484,-54.499000549316406 48.444000244140625,-43.066001892089844 48.444000244140625,-43.066001892089844 C48.444000244140625,-43.066001892089844 -35.09000015258789,54.499000549316406 -35.09000015258789,54.499000549316406 C-35.09000015258789,54.499000549316406 -48.444000244140625,43.064998626708984 -48.444000244140625,43.064998626708984z"></path></g><g opacity="1" transform="matrix(1,0,0,1,97.59200286865234,42.827999114990234)"><path fill="rgb(220,253,221)" fill-opacity="1" d=" M-11.083999633789062,6.9720001220703125 C-11.083999633789062,6.9720001220703125 5.182000160217285,-12.024999618530273 5.182000160217285,-12.024999618530273 C5.59499979019165,-12.506999969482422 6.321000099182129,-12.5649995803833 6.803999900817871,-12.152000427246094 C6.803999900817871,-12.152000427246094 10.958000183105469,-8.593999862670898 10.958000183105469,-8.593999862670898 C11.440999984741211,-8.180999755859375 11.496999740600586,-7.454999923706055 11.083999633789062,-6.9730000495910645 C11.083999633789062,-6.9730000495910645 -5.182000160217285,12.024999618530273 -5.182000160217285,12.024999618530273 C-5.59499979019165,12.508000373840332 -6.321000099182129,12.564000129699707 -6.803999900817871,12.151000022888184 C-6.803999900817871,12.151000022888184 -10.958000183105469,8.593000411987305 -10.958000183105469,8.593000411987305 C-11.4399995803833,8.180000305175781 -11.496999740600586,7.453999996185303 -11.083999633789062,6.9720001220703125z"></path></g><g opacity="1" transform="matrix(1,0,0,1,79.41899871826172,64.0510025024414)"><path fill="rgb(220,253,221)" fill-opacity="1" d=" M-7.645999908447266,2.9579999446868896 C-7.645999908447266,2.9579999446868896 1.7450000047683716,-8.01099967956543 1.7450000047683716,-8.01099967956543 C2.1579999923706055,-8.493000030517578 2.884000062942505,-8.548999786376953 3.367000102996826,-8.13599967956543 C3.367000102996826,-8.13599967956543 7.521999835968018,-4.578999996185303 7.521999835968018,-4.578999996185303 C8.003999710083008,-4.165999889373779 8.0600004196167,-3.438999891281128 7.646999835968018,-2.9570000171661377 C7.646999835968018,-2.9570000171661377 -1.746000051498413,8.01200008392334 -1.746000051498413,8.01200008392334 C-2.1589999198913574,8.494000434875488 -2.884000062942505,8.550000190734863 -3.367000102996826,8.13700008392334 C-3.367000102996826,8.13700008392334 -7.520999908447266,4.578999996185303 -7.520999908447266,4.578999996185303 C-8.003000259399414,4.164999961853027 -8.059000015258789,3.440000057220459 -7.645999908447266,2.9579999446868896z"></path></g></g><g transform="matrix(2.65516996383667,0,0,2.65516996383667,164.60366821289062,274.0167236328125)" opacity="1" style="display: block;"><g opacity="1" transform="matrix(1,0,0,1,81.47899627685547,30.240999221801758)"><path fill="rgb(220,253,221)" fill-opacity="1" d=" M-76.22200012207031,-28.989999771118164 C-76.22200012207031,-28.989999771118164 80.22899627685547,-14.614999771118164 80.22899627685547,-14.614999771118164 C80.22899627685547,-14.614999771118164 76.22200012207031,28.989999771118164 76.22200012207031,28.989999771118164 C76.22200012207031,28.989999771118164 -80.22899627685547,14.614999771118164 -80.22899627685547,14.614999771118164 C-80.22899627685547,14.614999771118164 -76.22200012207031,-28.989999771118164 -76.22200012207031,-28.989999771118164z"></path><path stroke-linecap="butt" stroke-linejoin="miter" fill-opacity="0" stroke-miterlimit="10" stroke="rgb(184,203,184)" stroke-opacity="1" stroke-width="0.5" d=" M-76.22200012207031,-28.989999771118164 C-76.22200012207031,-28.989999771118164 80.22899627685547,-14.614999771118164 80.22899627685547,-14.614999771118164 C80.22899627685547,-14.614999771118164 76.22200012207031,28.989999771118164 76.22200012207031,28.989999771118164 C76.22200012207031,28.989999771118164 -80.22899627685547,14.614999771118164 -80.22899627685547,14.614999771118164 C-80.22899627685547,14.614999771118164 -76.22200012207031,-28.989999771118164 -76.22200012207031,-28.989999771118164z"></path></g></g><g transform="matrix(2.65516996383667,0,0,2.65516996383667,193.9478759765625,248.72427368164062)" opacity="1" style="display: block;"><g opacity="1" transform="matrix(1,0,0,1,82.09700012207031,33.93000030517578)"><path fill="rgb(220,253,221)" fill-opacity="1" d=" M-74.71499633789062,-32.68000030517578 C-74.71499633789062,-32.68000030517578 80.84700012207031,-10.678000450134277 80.84700012207031,-10.678000450134277 C80.84700012207031,-10.678000450134277 74.71499633789062,32.68000030517578 74.71499633789062,32.68000030517578 C74.71499633789062,32.68000030517578 -80.84700012207031,10.678000450134277 -80.84700012207031,10.678000450134277 C-80.84700012207031,10.678000450134277 -74.71499633789062,-32.68000030517578 -74.71499633789062,-32.68000030517578z"></path><path stroke-linecap="butt" stroke-linejoin="miter" fill-opacity="0" stroke-miterlimit="10" stroke="rgb(184,203,184)" stroke-opacity="1" stroke-width="0.5" d=" M-74.71499633789062,-32.68000030517578 C-74.71499633789062,-32.68000030517578 80.84700012207031,-10.678000450134277 80.84700012207031,-10.678000450134277 C80.84700012207031,-10.678000450134277 74.71499633789062,32.68000030517578 74.71499633789062,32.68000030517578 C74.71499633789062,32.68000030517578 -80.84700012207031,10.678000450134277 -80.84700012207031,10.678000450134277 C-80.84700012207031,10.678000450134277 -74.71499633789062,-32.68000030517578 -74.71499633789062,-32.68000030517578z"></path></g></g><g transform="matrix(2.6500000953674316,0,0,2.6500000953674316,137.1460418701172,306.51373291015625)" opacity="1" style="display: block;"><g opacity="1" transform="matrix(1,0,0,1,96.31999969482422,65.12999725341797)"><path fill="rgb(166,221,168)" fill-opacity="1" d=" M-90.73999786376953,-64.87999725341797 C-90.73999786376953,-64.87999725341797 90.73999786376953,-64.87999725341797 90.73999786376953,-64.87999725341797 C93.68399810791016,-64.87999725341797 96.06999969482422,-62.49399948120117 96.06999969482422,-59.54999923706055 C96.06999969482422,-59.54999923706055 96.06999969482422,59.54999923706055 96.06999969482422,59.54999923706055 C96.06999969482422,62.49399948120117 93.68399810791016,64.87999725341797 90.73999786376953,64.87999725341797 C90.73999786376953,64.87999725341797 -90.73999786376953,64.87999725341797 -90.73999786376953,64.87999725341797 C-93.68399810791016,64.87999725341797 -96.06999969482422,62.49399948120117 -96.06999969482422,59.54999923706055 C-96.06999969482422,59.54999923706055 -96.06999969482422,-59.54999923706055 -96.06999969482422,-59.54999923706055 C-96.06999969482422,-62.49399948120117 -93.68399810791016,-64.87999725341797 -90.73999786376953,-64.87999725341797z"></path></g></g><g transform="matrix(2.564697265625,-0.6872085332870483,0.6872085332870483,2.564697265625,508.31488037109375,468.7428283691406)" opacity="1" style="display: block;"><g opacity="1" transform="matrix(1,0,0,1,43.91999816894531,20.21500015258789)"><path fill="rgb(220,253,221)" fill-opacity="1" d=" M-23.709999084472656,-19.96500015258789 C-23.709999084472656,-19.96500015258789 23.709999084472656,-19.96500015258789 23.709999084472656,-19.96500015258789 C34.733001708984375,-19.96500015258789 43.66999816894531,-11.027999877929688 43.66999816894531,-0.004999999888241291 C43.66999816894531,-0.004999999888241291 43.66999816894531,0.004999999888241291 43.66999816894531,0.004999999888241291 C43.66999816894531,11.029000282287598 34.733001708984375,19.96500015258789 23.709999084472656,19.96500015258789 C23.709999084472656,19.96500015258789 -23.709999084472656,19.96500015258789 -23.709999084472656,19.96500015258789 C-34.73400115966797,19.96500015258789 -43.66999816894531,11.029000282287598 -43.66999816894531,0.004999999888241291 C-43.66999816894531,0.004999999888241291 -43.66999816894531,-0.004999999888241291 -43.66999816894531,-0.004999999888241291 C-43.66999816894531,-11.027999877929688 -34.73400115966797,-19.96500015258789 -23.709999084472656,-19.96500015258789z"></path></g><g opacity="1" transform="matrix(1,0,0,1,23.700000762939453,20.209999084472656)"><path fill="rgb(166,221,168)" fill-opacity="1" d=" M0.0010000000474974513,-13.489999771118164 C0.0010000000474974513,-13.489999771118164 0.0010000000474974513,-13.489999771118164 0.0010000000474974513,-13.489999771118164 C7.451000213623047,-13.489999771118164 13.489999771118164,-7.449999809265137 13.489999771118164,0 C13.489999771118164,7.449999809265137 7.451000213623047,13.489999771118164 0.0010000000474974513,13.489999771118164 C-7.449999809265137,13.489999771118164 -13.489999771118164,7.449999809265137 -13.489999771118164,0 C-13.489999771118164,-7.449999809265137 -7.449999809265137,-13.489999771118164 0.0010000000474974513,-13.489999771118164z"></path></g></g><g transform="matrix(2.65516996383667,0,0,2.65516996383667,504.5862731933594,589.0689697265625)" opacity="1" style="display: block;"><g opacity="1" transform="matrix(1,0,0,1,21.895000457763672,5.934999942779541)"><path fill="rgb(220,253,221)" fill-opacity="1" d=" M-18.18400001525879,-5.684999942779541 C-18.18400001525879,-5.684999942779541 18.18400001525879,-5.684999942779541 18.18400001525879,-5.684999942779541 C20.094999313354492,-5.684999942779541 21.645000457763672,-4.136000156402588 21.645000457763672,-2.2260000705718994 C21.645000457763672,-2.2260000705718994 21.645000457763672,2.2249999046325684 21.645000457763672,2.2249999046325684 C21.645000457763672,4.136000156402588 20.094999313354492,5.684999942779541 18.18400001525879,5.684999942779541 C18.18400001525879,5.684999942779541 -18.18400001525879,5.684999942779541 -18.18400001525879,5.684999942779541 C-20.094999313354492,5.684999942779541 -21.645000457763672,4.136000156402588 -21.645000457763672,2.2249999046325684 C-21.645000457763672,2.2249999046325684 -21.645000457763672,-2.2260000705718994 -21.645000457763672,-2.2260000705718994 C-21.645000457763672,-4.136000156402588 -20.094999313354492,-5.684999942779541 -18.18400001525879,-5.684999942779541z"></path></g></g><g transform="matrix(2.7699999809265137,0,0,2.7699999809265137,85.19500732421875,465.19500732421875)" opacity="1" style="display: block;"><g opacity="1" transform="matrix(1,0,0,1,46.29999923706055,46.29999923706055)"><path fill="rgb(79,193,83)" fill-opacity="1" d=" M0,-46.04999923706055 C25.433000564575195,-46.04999923706055 46.04999923706055,-25.433000564575195 46.04999923706055,0 C46.04999923706055,25.433000564575195 25.433000564575195,46.04999923706055 0,46.04999923706055 C-25.433000564575195,46.04999923706055 -46.04999923706055,25.433000564575195 -46.04999923706055,0 C-46.04999923706055,-25.433000564575195 -25.433000564575195,-46.04999923706055 0,-46.04999923706055z"></path></g></g><g transform="matrix(2.714289903640747,0,0,2.714289903640747,143.49990844726562,549.8570556640625)" opacity="0.9999998666990993" style="display: block;"><g opacity="1" transform="matrix(1,0,0,1,24.349000930786133,16.947999954223633)"><path fill="rgb(255,255,255)" fill-opacity="1" d=" M23.229000091552734,-15.843999862670898 C22.395000457763672,-16.68899917602539 21.034000396728516,-16.69700050354004 20.187999725341797,-15.86299991607666 C20.18199920654297,-15.855999946594238 20.173999786376953,-15.85099983215332 20.167999267578125,-15.843999862670898 C20.167999267578125,-15.843999862670898 -6.671000003814697,11.027000427246094 -6.671000003814697,11.027000427246094 C-6.671000003814697,11.027000427246094 -19.881999969482422,-0.5440000295639038 -19.881999969482422,-0.5440000295639038 C-20.864999771118164,-1.4110000133514404 -22.36400032043457,-1.315999984741211 -23.231000900268555,-0.3330000042915344 C-24.097999572753906,0.6499999761581421 -24.003999710083008,2.1489999294281006 -23.020999908447266,3.0160000324249268 C-23.020999908447266,3.0160000324249268 -8.730999946594238,15.527000427246094 -8.730999946594238,15.527000427246094 C-8.654999732971191,15.64799976348877 -8.5649995803833,15.758999824523926 -8.461999893188477,15.857000350952148 C-7.677000045776367,16.636999130249023 -6.428999900817871,16.69700050354004 -5.572000026702881,15.994999885559082 C-5.394999980926514,15.87600040435791 -5.230000019073486,15.739999771118164 -5.080999851226807,15.586999893188477 C-5.080999851226807,15.586999893188477 -4.9710001945495605,15.425999641418457 -4.9710001945495605,15.425999641418457 C-4.9710001945495605,15.425999641418457 23.229000091552734,-12.743000030517578 23.229000091552734,-12.743000030517578 C24.084999084472656,-13.581999778747559 24.097999572753906,-14.956000328063965 23.259000778198242,-15.812000274658203 C23.249000549316406,-15.821999549865723 23.239999771118164,-15.833999633789062 23.229000091552734,-15.843999862670898z"></path></g></g></g></svg>