<!-- icon666.com - MILLIONS vector ICONS FREE --><svg id="Layer_1" enable-background="new 0 0 512 512" viewBox="0 0 512 512" xmlns="http://www.w3.org/2000/svg"><path clip-rule="evenodd" d="m494.6 0h-329.9v227c77.3 6.6 138.3 71.7 138.3 150.8 0 16.2-2.6 31.9-7.3 46.5h198.9zm-64.8 350.7h-88.1c-4.7 0-8.6 3.8-8.6 8.5s3.9 8.5 8.6 8.5h88.1c4.7 0 8.5-3.9 8.5-8.5s-3.9-8.5-8.5-8.5zm0-73.5h-111c-4.7 0-8.5 3.9-8.5 8.5 0 4.7 3.9 8.5 8.5 8.5h110.8c4.7 0 8.5-3.8 8.5-8.5.1-4.6-3.7-8.5-8.3-8.5zm-218.1-56.5h218c4.7 0 8.5-3.9 8.5-8.5 0-4.7-3.9-8.5-8.5-8.5h-218c-4.7 0-8.5 3.8-8.5 8.5s3.7 8.5 8.5 8.5zm0-73.6h218c4.7 0 8.5-3.8 8.5-8.5s-3.9-8.5-8.5-8.5h-218c-4.7 0-8.5 3.9-8.5 8.5 0 4.7 3.7 8.5 8.5 8.5zm0-73.5h218c4.7 0 8.5-3.9 8.5-8.5 0-4.7-3.9-8.6-8.5-8.6h-218c-4.7 0-8.5 3.9-8.5 8.6s3.7 8.5 8.5 8.5zm74.1 304.2c0-74-60.3-134.3-134.2-134.3-74 0-134.3 60.3-134.3 134.3s60.3 134.2 134.3 134.2c74.1 0 134.2-60.3 134.2-134.2zm-73-49.1c-16.3 16.3-32.7 32.7-49.1 49.1 16.3 16.3 32.7 32.7 49.1 49.1 3.3 3.3 3.3 8.7 0 12-1.7 1.7-3.9 2.4-6.1 2.4-2.1 0-4.4-.9-6.1-2.4-16.3-16.3-32.7-32.7-49.1-49.1-16.3 16.3-32.7 32.7-49.1 49.1-1.7 1.7-3.9 2.4-6.1 2.4s-4.4-.9-6.1-2.4c-3.3-3.3-3.3-8.8 0-12 16.3-16.3 32.7-32.8 49.1-49.1-16.3-16.3-32.7-32.7-49.1-49.1-3.3-3.3-3.3-8.8 0-12 3.3-3.3 8.8-3.3 12 0l49.1 49.1c16.3-16.3 32.7-32.8 49.1-49.1 3.3-3.3 8.8-3.3 12 0 3.8 3.2 3.8 8.6.4 12z" fill-rule="evenodd"/></svg>